<svg width="406" height="94" viewBox="0 0 406 94" fill="none" xmlns="http://www.w3.org/2000/svg">
<path d="M0 0H2.80074V55.3487H20.8499V0H23.6507V93.6908H20.8499V57.8224H2.80074V94H0V0Z" fill="white"/>
<path d="M98.0253 45.1446C98.0253 61.5328 84.644 74.5196 68.4619 74.5196C52.2799 74.5196 38.5874 61.5328 38.5874 45.1446C38.5874 28.7565 51.9687 15.7696 68.1507 15.7696C84.644 15.7696 98.0253 29.0657 98.0253 45.1446ZM87.1335 26.2828C76.2418 15.4604 58.815 14.842 48.2344 25.3552C37.6538 35.8683 38.2762 53.1841 49.168 64.0065C60.0597 74.8288 77.4865 75.4473 88.0671 64.9341C98.6477 54.7302 98.3365 37.4144 87.1335 26.2828Z" fill="white"/>
<path d="M118.875 15.7696C128.834 15.7696 136.925 23.8091 136.925 33.7038C136.925 41.1249 132.257 47.6183 125.722 50.4012L142.215 73.592H139.414L123.543 51.0196C121.987 51.3288 120.431 51.638 118.875 51.638C117.942 51.638 117.008 51.6381 116.075 51.3288V73.592H113.274V16.6973C115.141 16.0788 117.008 15.7696 118.875 15.7696ZM118.875 50.4012C127.278 50.4012 134.124 42.9801 134.124 33.7038C134.124 24.4275 127.278 17.0065 118.875 17.0065C117.942 17.0065 117.008 17.0065 116.075 17.3157V50.092C117.008 50.4012 117.942 50.4012 118.875 50.4012Z" fill="white"/>
<path d="M161.198 73.9017V16.6978H163.999V73.9017H161.198Z" fill="white"/>
<path d="M201.652 70.1908C201.963 70.5001 201.963 71.1185 202.275 71.4277H188.893C192.628 54.1119 196.673 36.7961 200.408 19.7895H189.516C189.205 19.4803 189.205 18.8619 188.893 18.5527H202.275C198.54 35.8685 194.495 53.1843 190.761 70.1908H201.652Z" fill="white"/>
<path d="M280.696 45.1446C280.696 61.5328 267.314 74.5196 251.132 74.5196C234.95 74.5196 221.569 61.2236 221.569 45.1446C221.569 28.7565 234.95 15.7696 251.132 15.7696C267.626 15.7696 280.696 29.0657 280.696 45.1446ZM270.115 26.2828C259.223 15.4604 241.796 14.842 231.216 25.3552C220.635 35.8683 221.258 53.1841 232.149 64.0065C243.041 74.8288 260.468 75.4473 271.049 64.9341C281.629 54.7302 281.007 37.4144 270.115 26.2828Z" fill="white"/>
<path d="M324.574 16.6978V73.9017H323.64L323.329 72.9741L302.479 25.0465V73.9017H300.923V16.6978H301.857L302.168 17.6254L323.018 65.553V16.6978H324.574Z" fill="white"/>
<path d="M368.142 16.6978C367.83 17.3162 367.208 17.6254 366.897 18.2438H357.561V73.9017H354.76V18.2438H344.18C344.491 17.6254 345.113 17.3162 345.425 16.6978H368.142Z" fill="white"/>
<path d="M403.305 91.5263C403.928 92.1447 404.55 93.0724 405.172 93.6908H381.522V0H405.172C404.55 0.618421 403.928 1.54605 403.305 2.16448H384.323V34.3224H401.127C400.505 34.9408 400.193 35.8684 399.571 36.4868H384.323V90.9079H403.305V91.5263Z" fill="white"/>
</svg>
