<svg data-v-2b23ff20="" data-v-af58ae7b="" width="16" height="16" viewBox="0 0 16 16" fill="none" xmlns="http://www.w3.org/2000/svg" class="inner-svg"><path data-v-2b23ff20="" d="M8.00067 1.3335C11.6825 1.3335 14.6673 4.31826 14.6673 8.00016C14.6673 11.682 11.6825 14.6668 8.00067 14.6668C6.77807 14.6668 5.63234 14.3378 4.64724 13.7633L1.33677 14.6668L2.23808 11.3545C1.66329 10.3692 1.33398 9.22316 1.33398 8.00016C1.33398 4.31826 4.31875 1.3335 8.00067 1.3335ZM5.59488 4.87238C5.50862 4.87844 5.42404 4.89951 5.34704 4.9389C5.28928 4.96846 5.23565 5.01117 5.15139 5.09074C5.07182 5.16586 5.02571 5.23148 4.97712 5.29474C4.73066 5.61563 4.59819 6.00953 4.60065 6.41415C4.60199 6.74123 4.68695 7.0591 4.82112 7.3559C5.09321 7.95776 5.54192 8.59403 6.13462 9.1841C6.277 9.32583 6.41648 9.4691 6.56689 9.6015C7.30253 10.2492 8.1792 10.7163 9.12713 10.9656C9.12713 10.9656 9.50046 11.023 9.50593 11.0233C9.6296 11.03 9.75306 11.021 9.87686 11.0147C10.0711 11.0047 10.2607 10.9522 10.4323 10.8608C10.5426 10.802 10.5948 10.7728 10.6874 10.7144C10.6874 10.7144 10.7158 10.6952 10.7706 10.6544C10.8606 10.5874 10.9162 10.5402 10.9911 10.4624C11.0463 10.4051 11.0937 10.3374 11.1304 10.261C11.1825 10.1522 11.235 9.94456 11.2559 9.7721C11.2718 9.64036 11.267 9.56836 11.2653 9.52376C11.2624 9.45203 11.2031 9.37823 11.1382 9.3469L10.7505 9.17263C10.7505 9.17263 10.1709 8.92036 9.81633 8.75863C9.7794 8.74176 9.739 8.73396 9.6984 8.7315C9.60946 8.72603 9.5098 8.74923 9.4464 8.81603C9.44306 8.8147 9.39893 8.85283 8.9166 9.43716C8.89 9.46896 8.82766 9.5381 8.71986 9.53163C8.7036 9.5305 8.6874 9.52816 8.6716 9.52403C8.62793 9.5125 8.5854 9.4973 8.5438 9.4797C8.46133 9.4447 8.4324 9.43143 8.37606 9.40716C7.9912 9.23903 7.638 9.0141 7.3258 8.73883C7.24206 8.6651 7.1642 8.5857 7.08393 8.5079C6.8038 8.23636 6.57446 7.94756 6.40384 7.6627C6.39453 7.64716 6.38018 7.6247 6.36472 7.59956C6.3368 7.55416 6.30602 7.50016 6.29636 7.4631C6.27158 7.36503 6.33732 7.28623 6.33732 7.28623C6.33732 7.28623 6.49959 7.10883 6.57498 7.01236C6.64752 6.9195 6.71013 6.8287 6.75 6.76396C6.82853 6.63772 6.8534 6.50724 6.81213 6.40658C6.62509 5.9506 6.43212 5.49707 6.23324 5.04612C6.19398 4.95713 6.07723 4.89247 5.97106 4.88021C5.9351 4.87606 5.89916 4.87188 5.86306 4.86951C5.77368 4.86515 5.68413 4.86611 5.59488 4.87238Z" fill="#304143"></path></svg>